#!OML:ASF G:\JayActor3\Patient Classification 1\Patient 1\Session 5\male.ASF
:FULLY-SPECIFIED
:DEGREES
874
root 40.6804 16.2234 -4.5561 983.803 82.9636 985.266
lowerback 1.07621 -0.386673 7.5581
upperback 2.53643 -0.494878 0.459033
thorax 1.96258 -0.0896321 -3.76384
lowerneck -8.54955 0.0396771 1.73354
upperneck 11.4535 -0.396557 2.2327
head 4.84582 0.0506581 0.383927
rclavicle 2.93207e-015 1.35174e-014
rhumerus -30.7486 -1.21117 -89.592
rradius 31.999
rwrist -0.832118
rhand -19.1984 -8.16468
rfingers 7.12502
rthumb 7.1136 -38.0251
lclavicle 2.93207e-015 1.35174e-014
lhumerus -32.5905 5.86519 84.1141
lradius 29.3795
lwrist 18.8489
lhand -17.3448 11.8889
lfingers 7.12502
lthumb 8.90262 41.6811
rfemur 5.50579 0.0274993 34.9369
rtibia 23.1405
rfoot -24.3618 -12.7373
rtoes 4.59174
lfemur -26.4863 5.14803 -16.252
ltibia 26.9503
lfoot -13.5971 10.3506
ltoes -17.2277
875
root 40.7881 16.2191 -4.56157 984.33 82.8709 985.699
lowerback 0.976218 -0.376894 7.68881
upperback 2.53167 -0.49123 0.473531
thorax 2.0144 -0.0836476 -3.82262
lowerneck -8.53697 0.0410883 1.72622
upperneck 11.4361 -0.392747 2.2296
head 4.8383 0.0515651 0.384364
rclavicle -8.19987e-016 1.03368e-014
rhumerus -30.7878 -1.22768 -89.6102
rradius 31.9635
rwrist -0.736102
rhand -19.1925 -8.16094
rfingers 7.12502
rthumb 7.11934 -38.0212
lclavicle -8.19987e-016 1.03368e-014
lhumerus -32.5701 5.93459 84.0695
lradius 29.1162
lwrist 18.6797
lhand -17.3627 11.8693
lfingers 7.12502
lthumb 8.88531 41.6622
rfemur 6.10364 -0.0964279 34.9964
rtibia 22.5802
rfoot -24.2388 -12.6624
rtoes 4.26116
lfemur -26.511 5.35797 -16.3873
ltibia 25.6118
lfoot -13.5064 10.2633
ltoes -17.2407
876
root 40.8971 16.2148 -4.56827 984.922 82.7562 986.191
lowerback 0.863363 -0.363092 7.84941
upperback 2.52321 -0.483704 0.493957
thorax 2.07016 -0.0750691 -3.892
lowerneck -8.5182 0.0403772 1.71521
upperneck 11.4161 -0.391092 2.2267
head 4.82897 0.0511991 0.385308
rclavicle 2.50966e-015 -8.34896e-015
rhumerus -30.8322 -1.22747 -89.6258
rradius 31.9287
rwrist -0.654415
rhand -19.1812 -8.17133
rfingers 7.12502
rthumb 7.1302 -38.0312
lclavicle 2.50966e-015 -8.34896e-015
lhumerus -32.5534 6.02006 84.0188
lradius 28.84
lwrist 18.5087
lhand -17.3837 11.8371
lfingers 7.12502
lthumb 8.86505 41.6309
rfemur 6.70792 -0.259761 35.0559
rtibia 21.9966
rfoot -24.0773 -12.5416
rtoes 3.91548
lfemur -26.5358 5.50221 -16.471
ltibia 24.3509
lfoot -13.4667 10.1877
ltoes -17.2892
877
root 41.0073 16.2106 -4.57624 985.546 82.6168 986.706
lowerback 0.736297 -0.349473 8.03868
upperback 2.5077 -0.478103 0.521581
thorax 2.12647 -0.0670483 -3.97
lowerneck -8.46989 0.0419567 1.70512
upperneck 11.3829 -0.38494 2.22119
head 4.81052 0.0525618 0.385541
rclavicle 2.26118e-015 -2.06736e-014
rhumerus -30.887 -1.21102 -89.6404
rradius 31.8929
rwrist -0.576782
rhand -19.1689 -8.18182
rfingers 7.12502
rthumb 7.14216 -38.0413
lclavicle 2.26118e-015 -2.06736e-014
lhumerus -32.5553 6.13254 83.9566
lradius 28.5552
lwrist 18.3318
lhand -17.4076 11.7715
lfingers 7.12502
lthumb 8.84203 41.5662
rfemur 7.31701 -0.456859 35.1192
rtibia 21.3921
rfoot -23.8741 -12.385
rtoes 3.5274
lfemur -26.5718 5.58351 -16.501
ltibia 23.1872
lfoot -13.4804 10.1202
ltoes -17.3173
878
root 41.1189 16.2064 -4.58527 986.231 82.4502 987.274
lowerback 0.596888 -0.332642 8.25887
upperback 2.49029 -0.470071 0.557836
thorax 2.18823 -0.0569662 -4.05632
lowerneck -8.42435 0.0444396 1.69665
upperneck 11.3502 -0.377142 2.20907
head 4.7927 0.0543853 0.383573
rclavicle 4.09993e-015 -3.37934e-014
rhumerus -30.9397 -1.18114 -89.6508
rradius 31.8515
rwrist -0.505194
rhand -19.1687 -8.1547
rfingers 7.12502
rthumb 7.14231 -38.0142
lclavicle 4.09993e-015 -3.37934e-014
lhumerus -32.5656 6.26628 83.8891
lradius 28.2664
lwrist 18.1526
lhand -17.4234 11.696
lfingers 7.12502
lthumb 8.82679 41.4914
rfemur 7.92876 -0.664802 35.1948
rtibia 20.7726
rfoot -23.6287 -12.2114
rtoes 3.08888
lfemur -26.6251 5.61958 -16.4745
ltibia 22.1403
lfoot -13.5274 10.0627
ltoes -17.3696
879
root 41.2319 16.2021 -4.59503 986.999 82.2654 987.92
lowerback 0.449545 -0.311851 8.49534
upperback 2.46928 -0.458229 0.600934
thorax 2.25138 -0.0446273 -4.14453
lowerneck -8.38296 0.0487007 1.68796
upperneck 11.3225 -0.366894 2.19487
head 4.77711 0.0573823 0.381172
rclavicle 9.19379e-016 -1.59028e-014
rhumerus -30.9965 -1.14651 -89.6562
rradius 31.809
rwrist -0.433097
rhand -19.1711 -8.09582
rfingers 7.12502
rthumb 7.13998 -37.9554
lclavicle 9.19379e-016 -1.59028e-014
lhumerus -32.5931 6.42676 83.814
lradius 27.9803
lwrist 17.9667
lhand -17.4267 11.5907
lfingers 7.12502
lthumb 8.82358 41.3863
rfemur 8.5412 -0.857816 35.2802
rtibia 20.1495
rfoot -23.3497 -12.031
rtoes 2.61059
lfemur -26.6991 5.64308 -16.4076
ltibia 21.2234
lfoot -13.5969 10.0029
ltoes -17.4291
880
root 41.3462 16.1976 -4.6052 987.855 82.0682 988.647
lowerback 0.296939 -0.285619 8.73893
upperback 2.44607 -0.440422 0.648789
thorax 2.31619 -0.0290702 -4.23158
lowerneck -8.35419 0.0545419 1.68036
upperneck 11.3031 -0.355016 2.17895
head 4.7662 0.0613208 0.37819
rclavicle -1.88845e-015 -1.59028e-015
rhumerus -31.049 -1.10944 -89.6569
rradius 31.7593
rwrist -0.365675
rhand -19.1738 -8.00076
rfingers 7.12502
rthumb 7.1374 -37.8604
lclavicle -1.88845e-015 -1.59028e-015
lhumerus -32.6265 6.59706 83.7353
lradius 27.6983
lwrist 17.791
lhand -17.4233 11.4798
lfingers 7.12502
lthumb 8.82689 41.2752
rfemur 9.14678 -1.0171 35.3753
rtibia 19.5383
rfoot -23.0432 -11.8432
rtoes 2.13052
lfemur -26.7968 5.68977 -16.3167
ltibia 20.4429
lfoot -13.6722 9.92451
ltoes -17.5003
881
root 41.4619 16.1928 -4.61547 988.816 81.8719 989.476
lowerback 0.141951 -0.252678 8.97295
upperback 2.42554 -0.414766 0.697386
thorax 2.38645 -0.00935266 -4.31223
lowerneck -8.35649 0.0614678 1.67274
upperneck 11.3001 -0.34319 2.16491
head 4.76559 0.0657623 0.375852
rclavicle 4.34841e-015 7.55382e-015
rhumerus -31.0909 -1.07729 -89.6525
rradius 31.704
rwrist -0.29777
rhand -19.1653 -7.89588
rfingers 7.12502
rthumb 7.14555 -37.7553
lclavicle 4.34841e-015 7.55382e-015
lhumerus -32.6599 6.77092 83.6559
lradius 27.4307
lwrist 17.6327
lhand -17.4173 11.3823
lfingers 7.12502
lthumb 8.83268 41.1775
rfemur 9.73775 -1.13035 35.4695
rtibia 18.962
rfoot -22.7248 -11.6527
rtoes 1.63162
lfemur -26.9079 5.7867 -16.2227
ltibia 19.7927
lfoot -13.7489 9.80951
ltoes -17.5454
882
root 41.5787 16.1877 -4.62552 989.849 81.6882 990.375
lowerback -0.0104063 -0.214957 9.18077
upperback 2.40405 -0.382929 0.742469
thorax 2.45526 0.0129016 -4.38156
lowerneck -8.3755 0.0684399 1.66744
upperneck 11.3057 -0.332763 2.155
head 4.77043 0.0701024 0.374353
rclavicle -2.13694e-015 -2.46493e-014
rhumerus -31.1265 -1.05512 -89.6462
rradius 31.6376
rwrist -0.225832
rhand -19.1495 -7.80095
rfingers 7.12502
rthumb 7.16087 -37.6598
lclavicle -2.13694e-015 -2.46493e-014
lhumerus -32.6978 6.94434 83.5721
lradius 27.1785
lwrist 17.4956
lhand -17.4111 11.3473
lfingers 7.12502
lthumb 8.83862 41.1422
rfemur 10.3021 -1.19691 35.552
rtibia 18.4434
rfoot -22.4121 -11.4523
rtoes 1.13467
lfemur -27.0232 5.9487 -16.1463
ltibia 19.2609
lfoot -13.8164 9.65208
ltoes -17.5859
